<svg width="28" height="28" fill="none" xmlns="http://www.w3.org/2000/svg"><g clip-path="url(#clip0_2094_151)" fill="#CD0505"><path d="M14 3.876c.68 0 1.27.333 1.622.915l5.08 8.405 5.573 9.224c.178.294.185.579.02.87-.217.385-.797.834-1.72.834H3.425c-.923 0-1.503-.449-1.72-.833-.165-.292-.158-.577.02-.871l5.574-9.224 5.08-8.405A1.856 1.856 0 0114 3.876zm0-1.586a3.45 3.45 0 00-2.979 1.68l-5.08 8.405L.368 21.6c-1.14 1.888.513 4.11 3.058 4.11h21.15c2.545 0 4.198-2.222 3.058-4.11l-5.575-9.223L16.98 3.97A3.45 3.45 0 0014 2.29z"/><path d="M14 21.815a1.258 1.258 0 100-2.515 1.258 1.258 0 000 2.515zm0-3.662a.793.793 0 01-.793-.793V9.952a.793.793 0 011.586 0v7.408a.793.793 0 01-.793.793z"/></g><defs><clipPath id="clip0_2094_151"><path fill="#fff" d="M0 0h28v28H0z"/></clipPath></defs></svg>