<svg width="24" height="24" fill="none" xmlns="http://www.w3.org/2000/svg"><g clip-path="url(#clip0_2121_49)"><path d="M12 .364C5.6.364.364 5.6.364 12 .364 18.4 5.6 23.636 12 23.636c6.4 0 11.636-5.236 11.636-11.636C23.636 5.6 18.4.364 12 .364zm9.564 16.909h-4.328c.364-1.491.582-3.127.618-4.91h5.055a11.105 11.105 0 01-1.345 4.91zM1.09 12.363h5.09c.037 1.783.255 3.419.619 4.91H2.436a11.105 11.105 0 01-1.345-4.91zm1.345-5.636h4.328a22.638 22.638 0 00-.619 4.91H1.091a11.106 11.106 0 011.345-4.91zM12.364 6V1.127c1.6.255 3.018 2.146 3.89 4.873h-3.89zm4.072.727c.4 1.455.618 3.128.655 4.91h-4.728v-4.91h4.073zm-4.8-5.6V6h-3.89c.872-2.727 2.29-4.618 3.89-4.873zm0 5.6v4.91H6.91c.036-1.782.255-3.455.655-4.91h4.072zM6.91 12.364h4.727v4.909H7.564a18.643 18.643 0 01-.655-4.91zM11.636 18v4.873c-1.6-.255-3.018-2.146-3.89-4.873h3.89zm.728 4.873V18h3.89c-.872 2.727-2.29 4.618-3.89 4.873zm0-5.6v-4.91h4.727c-.037 1.783-.255 3.455-.655 4.91h-4.072zm5.454-5.637a22.642 22.642 0 00-.618-4.909h4.327c.8 1.455 1.31 3.128 1.346 4.91h-5.055zM21.091 6h-4.073C16.4 3.964 15.491 2.327 14.4 1.345 17.2 2 19.564 3.673 21.09 6zM9.6 1.345C8.509 2.327 7.6 3.927 6.982 6H2.909c1.527-2.327 3.89-4 6.69-4.655zM2.909 18h4.073c.618 2.036 1.527 3.673 2.618 4.655A10.938 10.938 0 012.909 18zm11.49 4.655c1.092-.982 2-2.582 2.62-4.655h4.072a10.941 10.941 0 01-6.691 4.655z" fill="#000"/></g><defs><clipPath id="clip0_2121_49"><path fill="#fff" d="M0 0h24v24H0z"/></clipPath></defs></svg>