<svg width="100" height="111" fill="none" xmlns="http://www.w3.org/2000/svg"><g clip-path="url(#clip0_2078_214)" fill="#fff" stroke="#000" stroke-width=".288" stroke-miterlimit="22.926"><path d="M92.246 104.936c.548-.016.884-1.536 1.11-1.978a68.664 68.664 0 012.043-4.61c.18-.356.379-.707.625-1.021 1.031-1.42 3.182-1.393 3.415.6.26 3.617.202 7.282.49 10.915.024.64-.084 1.453-.648 1.812-.57.382-1.332.08-1.68-.483-.299-.452-.392-1.013-.448-1.547-.107-1.193-.1-2.404-.09-3.597-.048-.318.25-4.087-.47-3.204-.18.235-.315.571-.437.854-.52 1.271-1.049 2.563-1.651 3.799-.69 1.627-2.354 2.855-3.727 1.134-.956-1.496-1.61-3.559-2.353-5.135-.112-.186-.707-1.911-.831-1.182-.243 2.531.039 5.956-.287 8.61-.138.767-.88 1.07-1.646.87-1.247-.344-1.173-1.859-1.109-2.901.156-2.649.45-5.315.46-7.943.043-1.147-.16-2.682.923-3.407 1.008-.61 2.296-.008 2.883.914.487.69.83 1.513 1.151 2.301.529 1.337 1 2.443 1.469 3.778.206.458.32 1.192.788 1.421l.02.004v-.004h0zm-45.39-2.896c.165.136.411.119.631.13.814.006 2.502 0 3.49.004.414-.035.96.122 1.259-.184.297-.54.126-1.995.17-2.744.083-1.362-.279-2.233.73-2.767.753-.31 2.237-.179 2.155.834.004 1.952.035 9.98.035 12.105.14 1.104-1.342 1.634-2.2 1.221-1.073-.55-.64-3.495-.717-4.584.091-1.376-.4-1.403-1.496-1.374-1.115.041-2.727-.089-3.739.066-1.157.348.255 5.147-1.29 5.884-1.445.664-2.377-.511-2.221-1.91.011-1.721.042-7.23.062-10.31 0-.3.004-.582.006-.87.011-.595-.065-.893.377-1.076.617-.22 1.63-.276 2.12.231.226.268.253.654.282 1.005.056 1.01.134 2.88.183 3.734.021.208.02.442.155.594l.012.011h-.004v0zm-43.608.571c1.352-1.475 2.677-3.014 4.005-4.53.534-.535.783-1.288 1.474-1.624.6-.246 1.347-.333 1.992-.298 1.016.054.623.966.22 1.517-1.019 1.548-2.204 2.844-3.655 4.081-.905.696-.353.818.387 1.177 2.572 1.202 2.916 4.402 4.044 6.72.112.26.231.594.012.809-.438.357-1.209.33-1.74.2-2.027-.531-1.747-3.691-3.12-5.262-.67-.823-1.793-.944-2.784-1.052-.271-.027-.573-.157-.784-.268-.097-.04-.078.062-.086.136l.006 5.361c.031.623-.035.853-.554 1.074-.512.202-1.142.19-1.662.126-.425-.043-.723-.311-.783-.755-.437-4.083.233-8.546-.006-12.671-.075-1.213.542-.975 1.479-.998.44.002.753-.023.963.13.272.21.468.56.48.903.003.448 0 1.74 0 2.949v1.876c0 .313-.014.489.097.414l.011-.008.004-.008v.001zm78.995-6.138c.2.153.179.547.103.826-.249.874-.596 1.74-.948 2.603-.736 1.768-1.501 3.4-2.226 5.043-.707 1.574-1.468 3.142-2.185 4.713-.347 1.021-1.43 1.062-2.408 1.015-.622-.003-1.133-.357-.878-1.055.285-.846 1.097-1.747 1.084-2.684 0-.339-.123-.671-.269-.978-.825-1.632-1.672-3.264-2.433-4.925-.544-1.191-1.144-2.534-1.608-3.743-.264-.652-.253-.82.458-.895 1.006-.108 2.136-.147 2.478.903.997 2.227 2.028 4.467 2.97 6.714.336.584.482-.466.587-.699a87.415 87.415 0 011.882-4.826c.288-.617.583-1.467 1.047-1.948.227-.192.534-.184.821-.2.505 0 1.234-.09 1.504.117l.021.017v.002h0zm-17.137 2.424c-.117.04-.136.147-.14.258-.006.345 0 1.098-.002 2.061v8.441c.014.351-.141.665-.507.793-.507.185-1.688.352-2.18-.128-.203-.225-.23-.597-.263-.915-.278-3.127-.156-6.328-.17-9.478.003-.522-.046-1.007-.71-1.061-1.082-.173-2.953.368-3.304-.796-.216-.644.05-1.76.878-1.682 1.594-.006 6.505-.026 8.997-.033.383 0 .639-.022.88.252.417.53.478 1.498.004 1.997-.245.213-.599.215-.915.229-.841.035-1.815-.06-2.555.052l-.013.006v.004h0zm-40.502 5.293c-.573-.648-.788-1.243-.32-2.074.377-.697.744-1.599.583-2.449-.484-3.002-3.716-3.496-6.389-3.444-1.173.03-2.72-.101-3.65.646l-.015.016c-.36.367-.388.954-.383 1.828v1.638c.002 2.734-.005 6.203.004 8.881-.011.887.258 1.281 1.084 1.407.818.122 1.777.083 2.636.08 1.882-.033 4.114.18 5.687-.736 2.16-1.221 2.463-4.057.762-5.792h.001v-.001zm-6.03-5.495c.763-.008 1.555-.126 2.3.068l.036.01c1.511.444 1.653 2.474.25 3.163-.821.436-1.862.209-2.76.263-.367 0-.637 0-.786-.071-.173-.078-.206-.266-.214-.606-.006-.448 0-1.102-.002-1.587-.008-.968-.017-1.275 1.173-1.24h.002zm3.616 9.252c-.987.64-2.321.332-3.448.404-.796-.029-1.313.089-1.361-.782-.024-.689-.037-1.64.011-2.346.043-.682.418-.825 1.214-.798.902.017 1.852-.099 2.721.167l.036.012c1.491.428 2.183 2.357.829 3.343h-.002v0zm18.776 2.026c-.35-1.335-1.017-2.581-1.569-3.834-1.245-2.874-2.25-5.851-3.409-8.762-.105-.267-.218-.553-.449-.722-.55-.417-1.765-.415-2.233-.263l-.026.01c-.656.378-.951 1.466-1.27 2.151-1.394 3.301-2.888 6.802-4.118 10.166-.433 1.204-1.109 2.154.766 2.065 1.841-.076 1.792-1.02 2.57-2.581.133-.254.364-.442.658-.444 1.54.019 3.214-.153 4.723-.051.168.012.358.047.488.136.497.454.579 1.432.962 2.046.456.822 1.29 1.154 2.259 1.009.567-.07.815-.29.65-.924l-.002-.002h0zm-8.814-4.582l2.111-5.821 1.968 5.821h-4.079zM90.38 35.625C86.896 10.643 62.438-5.548 37.984 1.875 21.675 6.825 9.94 22.192 9.255 39.246c-.114 2.853.921 6.05 4.153 6.478H25.28c-.254 2.798-1.198 6.396-3.494 8.225-1.14.91-1.237.332-2.407.218-7.243-.72-10.962 9.628-3.879 13.48.404.22 1.335.44 1.45.517.095.064.252.935.35 1.18 1.143 2.817 5.27 8.037 8.642 7.831 1.797-.11 2.86-2.839 1.603-4.092-1.073-1.07-2.358-1.667-3.427-2.981-.429-.528-1.379-1.902-1.579-2.497-.161-.478.167-.258.486-.478 3.028-2.08 3.785-6.033 2.148-9.25 1.923-1.799 3.45-4.048 4.335-6.545.235-.662.872-2.764.872-3.35v-2.254h9.032c.136 1.56.233 3.157.146 4.73-.054.986-.21 2.339-.515 3.27-1.19 3.635-5.603 4.638-6.038 9.54-.432 4.827 2.297 6.62 5.026 9.82 1.036 1.213 2.009 2.605 1.488 4.256-.402 1.277-2.44 3.578-3.315 4.806-.41.577-1.113 1.198-1.275 1.96-.324 1.533.824 2.989 2.364 3.103 1.253.093 1.783-.141 2.554-1.1 1.156-1.44 3.13-4.382 4.054-5.992 2.047-3.567.841-6.908-1.577-9.866-.975-1.191-3.856-3.7-4.067-5.105-.468-3.107 2.237-4.384 3.921-6.4 1.624-1.942 2.416-4.333 2.626-6.836v-6.187h10.052c.014 1.095.324 2.298.654 3.348.809 2.553 2.76 4.76 2.042 7.57-.707 2.763-3.712 4.364-4.662 7.13-.7 2.04-.56 4.97.593 6.827 1.373 2.21 4.446 3.452 3.96 6.454-.314 1.948-3.875 4.57-4.892 6.608-.663 1.325-.288 2.903 1.14 3.467 2.204.872 3.585-1.445 4.803-2.912 2.966-3.573 5.534-6.173 3.232-11.084-1.445-3.086-5.463-4.731-3.548-8.443.654-1.27 1.855-2.182 2.709-3.26 1.857-2.34 2.41-5.416 1.766-8.29-.56-2.492-2.327-4.78-2.555-7.417h8.304c.031 2.333 1.031 4.655 2.546 6.406 2.154 2.488 6.26 3.398 6.632 7.201.035.369.061 1.706-.07 1.968-.065.126-1.648.89-2.019 1.185-2.653 2.12-3.17 6.021-1.322 8.841.388.592.882.962 1.208 1.516l-6.035 10.57c-.439.933-.647 1.278-.216 2.266.75 1.721 2.844 2.135 4.229.87 1.218-1.306 6.579-11.865 7.387-12.123.223-.072.518-.017.779-.095 6.78-2.006 7.843-9.883 1.324-12.908.035-2.49-.627-5.292-2-7.39-1.236-1.886-2.852-2.61-4.565-3.88-1.523-1.128-2.577-2.482-2.78-4.429h12.746c1.127 0 2.887-1.069 3.57-1.963 1.434-1.875.882-5.855.564-8.133v-.002h0zM20.423 62.846c-1.938 2.079-5.217-.836-3.156-2.936 1.845-1.88 5.137.812 3.156 2.936zm59.61 2.764a2.023 2.023 0 11-2.023 2.022c0-1.118.905-2.022 2.023-2.022zM14.5 40.337c.117-.963.056-2.042.146-2.983 2.093-21.888 22.997-36.16 44.318-30.886 15.287 3.782 26.307 18.18 26.482 33.869H14.5z"/><path d="M49.965 15.108c-6 0-10.863 4.86-10.863 10.854 0 5.994 4.864 10.853 10.863 10.853 6 0 10.864-4.86 10.864-10.853 0-5.995-4.864-10.854-10.864-10.854zm-.02 16.63a5.81 5.81 0 01-5.813-5.807 5.81 5.81 0 015.814-5.808 5.81 5.81 0 015.813 5.808 5.81 5.81 0 01-5.813 5.807z"/></g><defs><clipPath id="clip0_2078_214"><path fill="#fff" d="M0 0h100v111H0z"/></clipPath></defs></svg>