<svg width="50" height="50" fill="none" xmlns="http://www.w3.org/2000/svg"><g clip-path="url(#clip0_2073_25)"><path d="M27.083 33.854a1.563 1.563 0 010 3.125H18.75a1.563 1.563 0 010-3.125h8.333zm4.167-6.25a1.562 1.562 0 110 3.125h-12.5a1.563 1.563 0 010-3.125h12.5zM27.873 4.688a4.687 4.687 0 013.313 1.375l8.587 8.583a4.68 4.68 0 011.373 3.314v22.665a4.687 4.687 0 01-4.688 4.688H13.542a4.688 4.688 0 01-4.688-4.688V9.375a4.687 4.687 0 014.688-4.688h14.331zM13.542 7.813a1.562 1.562 0 00-1.563 1.562v31.25c0 .862.7 1.563 1.563 1.563h22.916a1.563 1.563 0 001.563-1.563V20.312h-8.854a3.646 3.646 0 01-3.646-3.645V7.812H13.54zm15.104 8.854c0 .287.233.52.52.52h8.642a1.662 1.662 0 00-.245-.333l-8.584-8.583a1.665 1.665 0 00-.333-.246v8.642z" fill="#000"/><path d="M27.083 33.854a1.563 1.563 0 010 3.125H18.75a1.563 1.563 0 010-3.125h8.333zm4.167-6.25a1.562 1.562 0 110 3.125h-12.5a1.563 1.563 0 010-3.125h12.5zM27.873 4.688a4.687 4.687 0 013.313 1.375l8.587 8.583a4.68 4.68 0 011.373 3.314v22.665a4.687 4.687 0 01-4.688 4.688H13.542a4.688 4.688 0 01-4.688-4.688V9.375a4.687 4.687 0 014.688-4.688h14.331zM13.542 7.813a1.562 1.562 0 00-1.563 1.562v31.25c0 .862.7 1.563 1.563 1.563h22.916a1.563 1.563 0 001.563-1.563V20.312h-8.854a3.646 3.646 0 01-3.646-3.645V7.812H13.54zm15.104 8.854c0 .287.233.52.52.52h8.642a1.662 1.662 0 00-.245-.333l-8.584-8.583a1.665 1.665 0 00-.333-.246v8.642z" fill="#000"/><path fill-rule="evenodd" clip-rule="evenodd" d="M27.083 33.854a1.563 1.563 0 010 3.125H18.75a1.563 1.563 0 010-3.125h8.333zm4.167-6.25a1.562 1.562 0 110 3.125h-12.5a1.563 1.563 0 010-3.125h12.5zM27.873 4.688a4.687 4.687 0 013.313 1.375l8.587 8.583a4.68 4.68 0 011.373 3.314v22.665a4.687 4.687 0 01-4.688 4.688H13.542a4.688 4.688 0 01-4.688-4.688V9.375a4.687 4.687 0 014.688-4.688h14.331zM13.542 7.813a1.562 1.562 0 00-1.563 1.562v31.25c0 .862.7 1.563 1.563 1.563h22.916a1.563 1.563 0 001.563-1.563V20.312h-8.854a3.646 3.646 0 01-3.646-3.645V7.812H13.54zm15.104 8.854c0 .287.233.52.52.52h8.642a1.662 1.662 0 00-.245-.333l-8.584-8.583a1.665 1.665 0 00-.333-.246v8.642z" fill="#26BBFF"/></g><defs><clipPath id="clip0_2073_25"><path fill="#fff" d="M0 0h50v50H0z"/></clipPath></defs></svg>