<svg width="50" height="50" fill="none" xmlns="http://www.w3.org/2000/svg"><path fill-rule="evenodd" clip-rule="evenodd" d="M20.265 6.078a9.896 9.896 0 019.474 0l17.25 9.407a2.604 2.604 0 010 4.575l-3.758 2.048v10.247c0 3.553-2.833 6.034-6.12 7.542-3.376 1.546-7.776 2.354-12.109 2.354-3.046 0-6.123-.404-8.854-1.177v.034a3.123 3.123 0 11-3.125 0v-1.159l-.131-.054c-3.288-1.506-6.12-3.987-6.12-7.54V22.108l-3.76-2.048a2.604 2.604 0 010-4.575l17.253-9.407zm9.474 23.388a9.895 9.895 0 01-9.474 0l-4.12-2.246v10.588c2.586.845 5.699 1.318 8.855 1.318 4 0 7.933-.754 10.806-2.07 2.963-1.359 4.298-3.046 4.298-4.7v-8.542L29.74 29.466zm-19.841 2.89c0 1.416.981 2.854 3.125 4.093V25.516l-3.125-1.704v8.543zM28.246 8.82a6.77 6.77 0 00-6.488 0l-16.41 8.952 8.702 4.746 10.148-6.088a1.564 1.564 0 111.608 2.684L17.23 24.25l4.527 2.471a6.778 6.778 0 006.488 0l16.41-8.95L28.246 8.82z" fill="#26BBFF"/></svg>